<svg width="24" height="24" viewBox="0 0 24 24" fill="none" xmlns="http://www.w3.org/2000/svg">
<mask id="mask0_7_4400" style="mask-type:alpha" maskUnits="userSpaceOnUse" x="0" y="0" width="24" height="24">
<rect width="24" height="24" fill="#D9D9D9"/>
</mask>
<g mask="url(#mask0_7_4400)">
<path d="M11 13.0001V16.0001C11 16.2834 11.0958 16.5209 11.2875 16.7126C11.4792 16.9042 11.7167 17.0001 12 17.0001C12.2833 17.0001 12.5208 16.9042 12.7125 16.7126C12.9042 16.5209 13 16.2834 13 16.0001V13.0001H16C16.2833 13.0001 16.5208 12.9042 16.7125 12.7126C16.9042 12.5209 17 12.2834 17 12.0001C17 11.7167 16.9042 11.4792 16.7125 11.2876C16.5208 11.0959 16.2833 11.0001 16 11.0001H13V8.00006C13 7.71673 12.9042 7.47923 12.7125 7.28756C12.5208 7.09589 12.2833 7.00006 12 7.00006C11.7167 7.00006 11.4792 7.09589 11.2875 7.28756C11.0958 7.47923 11 7.71673 11 8.00006V11.0001H8C7.71667 11.0001 7.47917 11.0959 7.2875 11.2876C7.09583 11.4792 7 11.7167 7 12.0001C7 12.2834 7.09583 12.5209 7.2875 12.7126C7.47917 12.9042 7.71667 13.0001 8 13.0001H11ZM12 22.0001C10.6167 22.0001 9.31667 21.7376 8.1 21.2126C6.88333 20.6876 5.825 19.9751 4.925 19.0751C4.025 18.1751 3.3125 17.1167 2.7875 15.9001C2.2625 14.6834 2 13.3834 2 12.0001C2 10.6167 2.2625 9.31673 2.7875 8.10006C3.3125 6.88339 4.025 5.82506 4.925 4.92506C5.825 4.02506 6.88333 3.31256 8.1 2.78756C9.31667 2.26256 10.6167 2.00006 12 2.00006C13.3833 2.00006 14.6833 2.26256 15.9 2.78756C17.1167 3.31256 18.175 4.02506 19.075 4.92506C19.975 5.82506 20.6875 6.88339 21.2125 8.10006C21.7375 9.31673 22 10.6167 22 12.0001C22 13.3834 21.7375 14.6834 21.2125 15.9001C20.6875 17.1167 19.975 18.1751 19.075 19.0751C18.175 19.9751 17.1167 20.6876 15.9 21.2126C14.6833 21.7376 13.3833 22.0001 12 22.0001Z" fill="#005FB4"/>
</g>
</svg>
