<svg width="88" height="89" viewBox="0 0 88 89" fill="none" xmlns="http://www.w3.org/2000/svg">
<mask id="mask0_351_8605" style="mask-type:alpha" maskUnits="userSpaceOnUse" x="0" y="0" width="88" height="89">
<rect y="0.5" width="88" height="88" fill="#D9D9D9"/>
</mask>
<g mask="url(#mask0_351_8605)">
<path d="M38.8654 51.1007L30.982 43.2173C30.3098 42.5451 29.4543 42.209 28.4154 42.209C27.3765 42.209 26.5209 42.5451 25.8487 43.2173C25.1765 43.8895 24.8404 44.7451 24.8404 45.784C24.8404 46.8229 25.1765 47.6784 25.8487 48.3507L36.2987 58.8007C37.032 59.534 37.8876 59.9007 38.8654 59.9007C39.8431 59.9007 40.6987 59.534 41.432 58.8007L62.1487 38.084C62.8209 37.4118 63.157 36.5562 63.157 35.5173C63.157 34.4784 62.8209 33.6229 62.1487 32.9507C61.4765 32.2784 60.6209 31.9423 59.582 31.9423C58.5431 31.9423 57.6876 32.2784 57.0154 32.9507L38.8654 51.1007ZM43.9987 81.1673C38.9265 81.1673 34.1598 80.2048 29.6987 78.2798C25.2376 76.3548 21.357 73.7423 18.057 70.4423C14.757 67.1423 12.1445 63.2618 10.2195 58.8007C8.29453 54.3395 7.33203 49.5729 7.33203 44.5007C7.33203 39.4284 8.29453 34.6618 10.2195 30.2007C12.1445 25.7395 14.757 21.859 18.057 18.559C21.357 15.259 25.2376 12.6465 29.6987 10.7215C34.1598 8.79648 38.9265 7.83398 43.9987 7.83398C49.0709 7.83398 53.8376 8.79648 58.2987 10.7215C62.7598 12.6465 66.6404 15.259 69.9404 18.559C73.2404 21.859 75.8529 25.7395 77.7779 30.2007C79.7029 34.6618 80.6654 39.4284 80.6654 44.5007C80.6654 49.5729 79.7029 54.3395 77.7779 58.8007C75.8529 63.2618 73.2404 67.1423 69.9404 70.4423C66.6404 73.7423 62.7598 76.3548 58.2987 78.2798C53.8376 80.2048 49.0709 81.1673 43.9987 81.1673Z" fill="#005FB4"/>
</g>
</svg>
