<svg width="16" height="17" viewBox="0 0 16 17" fill="none" xmlns="http://www.w3.org/2000/svg">
<path d="M8 10.2034L2.03802 16.1654C1.81496 16.3885 1.53105 16.5 1.18631 16.5C0.841572 16.5 0.557668 16.3885 0.334601 16.1654C0.111534 15.9423 0 15.6584 0 15.3137C0 14.9689 0.111534 14.685 0.334601 14.462L6.29658 8.5L0.334601 2.53802C0.111534 2.31496 0 2.03105 0 1.68631C0 1.34157 0.111534 1.05767 0.334601 0.834601C0.557668 0.611534 0.841572 0.5 1.18631 0.5C1.53105 0.5 1.81496 0.611534 2.03802 0.834601L8 6.79658L13.962 0.834601C14.185 0.611534 14.4689 0.5 14.8137 0.5C15.1584 0.5 15.4423 0.611534 15.6654 0.834601C15.8885 1.05767 16 1.34157 16 1.68631C16 2.03105 15.8885 2.31496 15.6654 2.53802L9.70342 8.5L15.6654 14.462C15.8885 14.685 16 14.9689 16 15.3137C16 15.6584 15.8885 15.9423 15.6654 16.1654C15.4423 16.3885 15.1584 16.5 14.8137 16.5C14.4689 16.5 14.185 16.3885 13.962 16.1654L8 10.2034Z" fill="#BBBBBE"/>
</svg>
