<svg width="16" height="16" viewBox="0 0 16 16" fill="none" xmlns="http://www.w3.org/2000/svg">
<mask id="mask0_168_3048" style="mask-type:alpha" maskUnits="userSpaceOnUse" x="0" y="0" width="16" height="16">
<rect width="16" height="16" fill="#D9D9D9"/>
</mask>
<g mask="url(#mask0_168_3048)">
<path d="M4.66669 14C4.30002 14 3.98613 13.8694 3.72502 13.6083C3.46391 13.3472 3.33335 13.0333 3.33335 12.6667V4C3.14446 4 2.98613 3.93611 2.85835 3.80833C2.73058 3.68056 2.66669 3.52222 2.66669 3.33333C2.66669 3.14444 2.73058 2.98611 2.85835 2.85833C2.98613 2.73056 3.14446 2.66667 3.33335 2.66667H6.00002C6.00002 2.47778 6.06391 2.31944 6.19169 2.19167C6.31946 2.06389 6.4778 2 6.66669 2H9.33335C9.52224 2 9.68058 2.06389 9.80835 2.19167C9.93613 2.31944 10 2.47778 10 2.66667H12.6667C12.8556 2.66667 13.0139 2.73056 13.1417 2.85833C13.2695 2.98611 13.3334 3.14444 13.3334 3.33333C13.3334 3.52222 13.2695 3.68056 13.1417 3.80833C13.0139 3.93611 12.8556 4 12.6667 4V12.6667C12.6667 13.0333 12.5361 13.3472 12.275 13.6083C12.0139 13.8694 11.7 14 11.3334 14H4.66669ZM8.00002 9.26667L9.26669 10.5333C9.38891 10.6556 9.54446 10.7167 9.73335 10.7167C9.92224 10.7167 10.0778 10.6556 10.2 10.5333C10.3222 10.4111 10.3834 10.2556 10.3834 10.0667C10.3834 9.87778 10.3222 9.72222 10.2 9.6L8.93335 8.33333L10.2 7.06667C10.3222 6.94444 10.3834 6.78889 10.3834 6.6C10.3834 6.41111 10.3222 6.25556 10.2 6.13333C10.0778 6.01111 9.92224 5.95 9.73335 5.95C9.54446 5.95 9.38891 6.01111 9.26669 6.13333L8.00002 7.4L6.73335 6.13333C6.61113 6.01111 6.45558 5.95 6.26669 5.95C6.0778 5.95 5.92224 6.01111 5.80002 6.13333C5.6778 6.25556 5.61669 6.41111 5.61669 6.6C5.61669 6.78889 5.6778 6.94444 5.80002 7.06667L7.06669 8.33333L5.80002 9.6C5.6778 9.72222 5.61669 9.87778 5.61669 10.0667C5.61669 10.2556 5.6778 10.4111 5.80002 10.5333C5.92224 10.6556 6.0778 10.7167 6.26669 10.7167C6.45558 10.7167 6.61113 10.6556 6.73335 10.5333L8.00002 9.26667Z" fill="#005FB4"/>
</g>
</svg>
