<svg width="24" height="24" viewBox="0 0 24 24" fill="none" xmlns="http://www.w3.org/2000/svg">
<mask id="mask0_112_1484" style="mask-type:alpha" maskUnits="userSpaceOnUse" x="0" y="0" width="24" height="24">
<rect width="24" height="24" fill="#D9D9D9"/>
</mask>
<g mask="url(#mask0_112_1484)">
<path d="M10.5 12.5C10.7833 12.5 11.0208 12.4042 11.2125 12.2125C11.4042 12.0208 11.5 11.7833 11.5 11.5C11.5 11.2167 11.4042 10.9792 11.2125 10.7875C11.0208 10.5958 10.7833 10.5 10.5 10.5C10.2167 10.5 9.97917 10.5958 9.7875 10.7875C9.59583 10.9792 9.5 11.2167 9.5 11.5C9.5 11.7833 9.59583 12.0208 9.7875 12.2125C9.97917 12.4042 10.2167 12.5 10.5 12.5ZM13.5 12.5C13.7833 12.5 14.0208 12.4042 14.2125 12.2125C14.4042 12.0208 14.5 11.7833 14.5 11.5C14.5 11.2167 14.4042 10.9792 14.2125 10.7875C14.0208 10.5958 13.7833 10.5 13.5 10.5C13.2167 10.5 12.9792 10.5958 12.7875 10.7875C12.5958 10.9792 12.5 11.2167 12.5 11.5C12.5 11.7833 12.5958 12.0208 12.7875 12.2125C12.9792 12.4042 13.2167 12.5 13.5 12.5ZM7.5 12.5C7.78333 12.5 8.02083 12.4042 8.2125 12.2125C8.40417 12.0208 8.5 11.7833 8.5 11.5C8.5 11.2167 8.40417 10.9792 8.2125 10.7875C8.02083 10.5958 7.78333 10.5 7.5 10.5C7.21667 10.5 6.97917 10.5958 6.7875 10.7875C6.59583 10.9792 6.5 11.2167 6.5 11.5C6.5 11.7833 6.59583 12.0208 6.7875 12.2125C6.97917 12.4042 7.21667 12.5 7.5 12.5ZM16.5 12.5C16.7833 12.5 17.0208 12.4042 17.2125 12.2125C17.4042 12.0208 17.5 11.7833 17.5 11.5C17.5 11.2167 17.4042 10.9792 17.2125 10.7875C17.0208 10.5958 16.7833 10.5 16.5 10.5C16.2167 10.5 15.9792 10.5958 15.7875 10.7875C15.5958 10.9792 15.5 11.2167 15.5 11.5C15.5 11.7833 15.5958 12.0208 15.7875 12.2125C15.9792 12.4042 16.2167 12.5 16.5 12.5ZM5.675 19L5.125 20.65C5.09167 20.75 5.03333 20.8333 4.95 20.9C4.86667 20.9667 4.76667 21 4.65 21H4.5C4.36667 21 4.25 20.95 4.15 20.85C4.05 20.75 4 20.6333 4 20.5V19C3.45 19 2.97917 18.8042 2.5875 18.4125C2.19583 18.0208 2 17.55 2 17V6C2 5.45 2.19583 4.97917 2.5875 4.5875C2.97917 4.19583 3.45 4 4 4H20C20.55 4 21.0208 4.19583 21.4125 4.5875C21.8042 4.97917 22 5.45 22 6V17C22 17.55 21.8042 18.0208 21.4125 18.4125C21.0208 18.8042 20.55 19 20 19V20.525C20 20.6583 19.9542 20.7708 19.8625 20.8625C19.7708 20.9542 19.6583 21 19.525 21H19.35C19.25 21 19.1583 20.9708 19.075 20.9125C18.9917 20.8542 18.9333 20.775 18.9 20.675L18.35 19H5.675Z" fill="#4480C1"/>
</g>
</svg>
