<svg width="24" height="24" viewBox="0 0 24 24" fill="none" xmlns="http://www.w3.org/2000/svg">
<mask id="mask0_185_1219" style="mask-type:alpha" maskUnits="userSpaceOnUse" x="0" y="0" width="24" height="24">
<rect width="24" height="24" fill="#D9D9D9"/>
</mask>
<g mask="url(#mask0_185_1219)">
<path d="M11.9998 15.275C11.8665 15.275 11.7415 15.2541 11.6248 15.2125C11.5081 15.1708 11.3998 15.1 11.2998 15L6.6998 10.4C6.51647 10.2166 6.4248 9.98331 6.4248 9.69998C6.4248 9.41664 6.51647 9.18331 6.6998 8.99998C6.88314 8.81664 7.11647 8.72498 7.3998 8.72498C7.68314 8.72498 7.91647 8.81664 8.0998 8.99998L11.9998 12.9L15.8998 8.99998C16.0831 8.81664 16.3165 8.72498 16.5998 8.72498C16.8831 8.72498 17.1165 8.81664 17.2998 8.99998C17.4831 9.18331 17.5748 9.41664 17.5748 9.69998C17.5748 9.98331 17.4831 10.2166 17.2998 10.4L12.6998 15C12.5998 15.1 12.4915 15.1708 12.3748 15.2125C12.2581 15.2541 12.1331 15.275 11.9998 15.275Z" fill="#98999A"/>
</g>
</svg>
