<svg width="16" height="16" viewBox="0 0 16 16" fill="none" xmlns="http://www.w3.org/2000/svg">
<mask id="mask0_167_16" style="mask-type:alpha" maskUnits="userSpaceOnUse" x="0" y="0" width="16" height="16">
<rect width="16" height="16" fill="#D9D9D9"/>
</mask>
<g mask="url(#mask0_167_16)">
<path d="M2.8 13.9834C2.56666 14.0389 2.36389 13.9806 2.19166 13.8084C2.01944 13.6362 1.96111 13.4334 2.01666 13.2001L2.6 10.3667L5.63333 13.4001L2.8 13.9834ZM6.71666 12.5834L3.41666 9.28339L10.3 2.40006C10.5556 2.1445 10.8722 2.01672 11.25 2.01672C11.6278 2.01672 11.9444 2.1445 12.2 2.40006L13.6 3.80006C13.8556 4.05561 13.9833 4.37228 13.9833 4.75006C13.9833 5.12783 13.8556 5.4445 13.6 5.70006L6.71666 12.5834Z" fill="#98999A"/>
</g>
</svg>
