<svg width="17" height="16" viewBox="0 0 17 16" fill="none" xmlns="http://www.w3.org/2000/svg">
<g clip-path="url(#clip0_310_3675)">
<path d="M8.50033 3C5.16699 3 2.32033 5.07333 1.16699 8C2.32033 10.9267 5.16699 13 8.50033 13C11.8337 13 14.6803 10.9267 15.8337 8C14.6803 5.07333 11.8337 3 8.50033 3ZM8.50033 11.3333C6.66033 11.3333 5.16699 9.84 5.16699 8C5.16699 6.16 6.66033 4.66667 8.50033 4.66667C10.3403 4.66667 11.8337 6.16 11.8337 8C11.8337 9.84 10.3403 11.3333 8.50033 11.3333ZM8.50033 6C7.39366 6 6.50033 6.89333 6.50033 8C6.50033 9.10667 7.39366 10 8.50033 10C9.60699 10 10.5003 9.10667 10.5003 8C10.5003 6.89333 9.60699 6 8.50033 6Z" fill="#4480C1"/>
</g>
<defs>
<clipPath id="clip0_310_3675">
<rect width="16" height="16" fill="white" transform="translate(0.5)"/>
</clipPath>
</defs>
</svg>
