<svg width="16" height="16" viewBox="0 0 16 16" fill="none" xmlns="http://www.w3.org/2000/svg">
<mask id="mask0_310_3581" style="mask-type:alpha" maskUnits="userSpaceOnUse" x="0" y="0" width="16" height="16">
<rect width="16" height="16" fill="#D9D9D9"/>
</mask>
<g mask="url(#mask0_310_3581)">
<path d="M4.13676 12.6156C3.94546 12.6985 3.76373 12.6803 3.59156 12.5609C3.4194 12.442 3.33331 12.2686 3.33331 12.0406V9.72502C3.33331 9.57997 3.37157 9.45046 3.44809 9.33649C3.52461 9.22253 3.62982 9.15 3.76373 9.11892L7.92442 7.99997L3.76373 6.88102C3.62982 6.84994 3.52461 6.77742 3.44809 6.66345C3.37157 6.54948 3.33331 6.41998 3.33331 6.27493V3.95933C3.33331 3.73139 3.4194 3.55775 3.59156 3.43839C3.76373 3.31945 3.94546 3.30143 4.13676 3.38431L12.9746 7.42496C13.2138 7.53892 13.3333 7.73059 13.3333 7.99997C13.3333 8.26935 13.2138 8.46102 12.9746 8.57499L4.13676 12.6156Z" fill="#98999A"/>
</g>
</svg>
